# Wavefront OBJ file automatically generated by Tiled2Unity

# Vertices (Count = 289)
v 0 -1 0
v -1 -1 0
v -1 0 0
v 0 0 0
v -2 -1 0
v -2 0 0
v -3 -1 0
v -3 0 0
v -4 -1 0
v -4 0 0
v -5 -1 0
v -5 0 0
v -6 -1 0
v -6 0 0
v -7 -1 0
v -7 0 0
v -8 -1 0
v -8 0 0
v -9 -1 0
v -9 0 0
v -10 -1 0
v -10 0 0
v -11 -1 0
v -11 0 0
v -12 -1 0
v -12 0 0
v -13 -1 0
v -13 0 0
v -14 -1 0
v -14 0 0
v -15 -1 0
v -15 0 0
v -16 -1 0
v -16 0 0
v 0 -2 0
v -1 -2 0
v -2 -2 0
v -3 -2 0
v -4 -2 0
v -5 -2 0
v -6 -2 0
v -7 -2 0
v -8 -2 0
v -9 -2 0
v -10 -2 0
v -11 -2 0
v -12 -2 0
v -13 -2 0
v -14 -2 0
v -15 -2 0
v -16 -2 0
v 0 -3 0
v -1 -3 0
v -2 -3 0
v -3 -3 0
v -4 -3 0
v -5 -3 0
v -6 -3 0
v -7 -3 0
v -8 -3 0
v -9 -3 0
v -10 -3 0
v -11 -3 0
v -12 -3 0
v -13 -3 0
v -14 -3 0
v -15 -3 0
v -16 -3 0
v 0 -4 0
v -1 -4 0
v -2 -4 0
v -3 -4 0
v -4 -4 0
v -5 -4 0
v -6 -4 0
v -7 -4 0
v -8 -4 0
v -9 -4 0
v -10 -4 0
v -11 -4 0
v -12 -4 0
v -13 -4 0
v -14 -4 0
v -15 -4 0
v -16 -4 0
v 0 -5 0
v -1 -5 0
v -2 -5 0
v -3 -5 0
v -4 -5 0
v -5 -5 0
v -6 -5 0
v -7 -5 0
v -8 -5 0
v -9 -5 0
v -10 -5 0
v -11 -5 0
v -12 -5 0
v -13 -5 0
v -14 -5 0
v -15 -5 0
v -16 -5 0
v 0 -6 0
v -1 -6 0
v -2 -6 0
v -3 -6 0
v -4 -6 0
v -5 -6 0
v -6 -6 0
v -7 -6 0
v -8 -6 0
v -9 -6 0
v -10 -6 0
v -11 -6 0
v -12 -6 0
v -13 -6 0
v -14 -6 0
v -15 -6 0
v -16 -6 0
v 0 -7 0
v -1 -7 0
v -2 -7 0
v -3 -7 0
v -4 -7 0
v -5 -7 0
v -6 -7 0
v -7 -7 0
v -8 -7 0
v -9 -7 0
v -10 -7 0
v -11 -7 0
v -12 -7 0
v -13 -7 0
v -14 -7 0
v -15 -7 0
v -16 -7 0
v 0 -8 0
v -1 -8 0
v -2 -8 0
v -3 -8 0
v -4 -8 0
v -5 -8 0
v -6 -8 0
v -7 -8 0
v -8 -8 0
v -9 -8 0
v -10 -8 0
v -11 -8 0
v -12 -8 0
v -13 -8 0
v -14 -8 0
v -15 -8 0
v -16 -8 0
v 0 -9 0
v -1 -9 0
v -2 -9 0
v -3 -9 0
v -4 -9 0
v -5 -9 0
v -6 -9 0
v -7 -9 0
v -8 -9 0
v -9 -9 0
v -10 -9 0
v -11 -9 0
v -12 -9 0
v -13 -9 0
v -14 -9 0
v -15 -9 0
v -16 -9 0
v 0 -10 0
v -1 -10 0
v -2 -10 0
v -3 -10 0
v -4 -10 0
v -5 -10 0
v -6 -10 0
v -7 -10 0
v -8 -10 0
v -9 -10 0
v -10 -10 0
v -11 -10 0
v -12 -10 0
v -13 -10 0
v -14 -10 0
v -15 -10 0
v -16 -10 0
v 0 -11 0
v -1 -11 0
v -2 -11 0
v -3 -11 0
v -4 -11 0
v -5 -11 0
v -6 -11 0
v -7 -11 0
v -8 -11 0
v -9 -11 0
v -10 -11 0
v -11 -11 0
v -12 -11 0
v -13 -11 0
v -14 -11 0
v -15 -11 0
v -16 -11 0
v 0 -12 0
v -1 -12 0
v -2 -12 0
v -3 -12 0
v -4 -12 0
v -5 -12 0
v -6 -12 0
v -7 -12 0
v -8 -12 0
v -9 -12 0
v -10 -12 0
v -11 -12 0
v -12 -12 0
v -13 -12 0
v -14 -12 0
v -15 -12 0
v -16 -12 0
v 0 -13 0
v -1 -13 0
v -2 -13 0
v -3 -13 0
v -4 -13 0
v -5 -13 0
v -6 -13 0
v -7 -13 0
v -8 -13 0
v -9 -13 0
v -10 -13 0
v -11 -13 0
v -12 -13 0
v -13 -13 0
v -14 -13 0
v -15 -13 0
v -16 -13 0
v 0 -14 0
v -1 -14 0
v -2 -14 0
v -3 -14 0
v -4 -14 0
v -5 -14 0
v -6 -14 0
v -7 -14 0
v -8 -14 0
v -9 -14 0
v -10 -14 0
v -11 -14 0
v -12 -14 0
v -13 -14 0
v -14 -14 0
v -15 -14 0
v -16 -14 0
v 0 -15 0
v -1 -15 0
v -2 -15 0
v -3 -15 0
v -4 -15 0
v -5 -15 0
v -6 -15 0
v -7 -15 0
v -8 -15 0
v -9 -15 0
v -10 -15 0
v -11 -15 0
v -12 -15 0
v -13 -15 0
v -14 -15 0
v -15 -15 0
v -16 -15 0
v 0 -16 0
v -1 -16 0
v -2 -16 0
v -3 -16 0
v -4 -16 0
v -5 -16 0
v -6 -16 0
v -7 -16 0
v -8 -16 0
v -9 -16 0
v -10 -16 0
v -11 -16 0
v -12 -16 0
v -13 -16 0
v -14 -16 0
v -15 -16 0
v -16 -16 0

# Texture cooridinates (Count = 96)
vt 0.0333374 0.3750076
vt 0.06666259 0.3750076
vt 0.06666259 0.4374924
vt 0.0333374 0.4374924
vt 0.4000041 0.6875076
vt 0.4333293 0.6875076
vt 0.4333293 0.7499924
vt 0.4000041 0.7499924
vt 0.4333374 0.6875076
vt 0.4666626 0.6875076
vt 0.4666626 0.7499924
vt 0.4333374 0.7499924
vt 0.4666707 0.6875076
vt 0.4999959 0.6875076
vt 0.4999959 0.7499924
vt 0.4666707 0.7499924
vt 0.4000041 0.6250076
vt 0.4333293 0.6250076
vt 0.4333293 0.6874924
vt 0.4000041 0.6874924
vt 0.4333374 0.6250076
vt 0.4666626 0.6250076
vt 0.4666626 0.6874924
vt 0.4333374 0.6874924
vt 0.4666707 0.6250076
vt 0.4999959 0.6250076
vt 0.4999959 0.6874924
vt 0.4666707 0.6874924
vt 0.5000041 0.6250076
vt 0.5333292 0.6250076
vt 0.5333292 0.6874924
vt 0.5000041 0.6874924
vt 0.5333374 0.6250076
vt 0.5666626 0.6250076
vt 0.5666626 0.6874924
vt 0.5333374 0.6874924
vt 0.5666707 0.6250076
vt 0.5999959 0.6250076
vt 0.5999959 0.6874924
vt 0.5666707 0.6874924
vt 0.4000041 0.5625076
vt 0.4333293 0.5625076
vt 0.4333293 0.6249924
vt 0.4000041 0.6249924
vt 0.4333374 0.5625076
vt 0.4666626 0.5625076
vt 0.4666626 0.6249924
vt 0.4333374 0.6249924
vt 0.4666707 0.5625076
vt 0.4999959 0.5625076
vt 0.4999959 0.6249924
vt 0.4666707 0.6249924
vt 0.5000041 0.5625076
vt 0.5333292 0.5625076
vt 0.5333292 0.6249924
vt 0.5000041 0.6249924
vt 0.5333374 0.5625076
vt 0.5666626 0.5625076
vt 0.5666626 0.6249924
vt 0.5333374 0.6249924
vt 0.5666707 0.5625076
vt 0.5999959 0.5625076
vt 0.5999959 0.6249924
vt 0.5666707 0.6249924
vt 0.4000041 0.5000076
vt 0.4333293 0.5000076
vt 0.4333293 0.5624924
vt 0.4000041 0.5624924
vt 0.4333374 0.5000076
vt 0.4666626 0.5000076
vt 0.4666626 0.5624924
vt 0.4333374 0.5624924
vt 0.4666707 0.5000076
vt 0.4999959 0.5000076
vt 0.4999959 0.5624924
vt 0.4666707 0.5624924
vt 0.4000041 0.4375076
vt 0.4333293 0.4375076
vt 0.4333293 0.4999924
vt 0.4000041 0.4999924
vt 0.4333374 0.4375076
vt 0.4666626 0.4375076
vt 0.4666626 0.4999924
vt 0.4333374 0.4999924
vt 0.4666707 0.4375076
vt 0.4999959 0.4375076
vt 0.4999959 0.4999924
vt 0.4666707 0.4999924
vt 0.1333374 0.6250076
vt 0.1666626 0.6250076
vt 0.1666626 0.6874924
vt 0.1333374 0.6874924
vt 6.103516E-05 0.500061
vt 0.499939 0.500061
vt 0.499939 0.999939
vt 6.103516E-05 0.999939

# Normal
vn 0 0 -1

# Groups (Count = 4)

g mesh_0001
f 1/1/1 2/2/1 3/3/1 4/4/1
f 2/1/1 5/2/1 6/3/1 3/4/1
f 5/1/1 7/2/1 8/3/1 6/4/1
f 7/1/1 9/2/1 10/3/1 8/4/1
f 9/1/1 11/2/1 12/3/1 10/4/1
f 11/1/1 13/2/1 14/3/1 12/4/1
f 13/1/1 15/2/1 16/3/1 14/4/1
f 15/1/1 17/2/1 18/3/1 16/4/1
f 17/1/1 19/2/1 20/3/1 18/4/1
f 19/1/1 21/2/1 22/3/1 20/4/1
f 21/1/1 23/2/1 24/3/1 22/4/1
f 23/1/1 25/2/1 26/3/1 24/4/1
f 25/1/1 27/2/1 28/3/1 26/4/1
f 27/1/1 29/2/1 30/3/1 28/4/1
f 29/1/1 31/2/1 32/3/1 30/4/1
f 31/1/1 33/2/1 34/3/1 32/4/1
f 35/1/1 36/2/1 2/3/1 1/4/1
f 36/1/1 37/2/1 5/3/1 2/4/1
f 37/1/1 38/2/1 7/3/1 5/4/1
f 38/1/1 39/2/1 9/3/1 7/4/1
f 39/1/1 40/2/1 11/3/1 9/4/1
f 40/1/1 41/2/1 13/3/1 11/4/1
f 41/1/1 42/2/1 15/3/1 13/4/1
f 42/1/1 43/2/1 17/3/1 15/4/1
f 43/1/1 44/2/1 19/3/1 17/4/1
f 44/1/1 45/2/1 21/3/1 19/4/1
f 45/1/1 46/2/1 23/3/1 21/4/1
f 46/1/1 47/2/1 25/3/1 23/4/1
f 47/1/1 48/2/1 27/3/1 25/4/1
f 48/1/1 49/2/1 29/3/1 27/4/1
f 49/1/1 50/2/1 31/3/1 29/4/1
f 50/1/1 51/2/1 33/3/1 31/4/1
f 52/1/1 53/2/1 36/3/1 35/4/1
f 53/1/1 54/2/1 37/3/1 36/4/1
f 54/1/1 55/2/1 38/3/1 37/4/1
f 55/1/1 56/2/1 39/3/1 38/4/1
f 56/1/1 57/2/1 40/3/1 39/4/1
f 57/1/1 58/2/1 41/3/1 40/4/1
f 58/1/1 59/2/1 42/3/1 41/4/1
f 59/1/1 60/2/1 43/3/1 42/4/1
f 60/1/1 61/2/1 44/3/1 43/4/1
f 61/1/1 62/2/1 45/3/1 44/4/1
f 62/1/1 63/2/1 46/3/1 45/4/1
f 63/1/1 64/2/1 47/3/1 46/4/1
f 64/1/1 65/2/1 48/3/1 47/4/1
f 65/1/1 66/2/1 49/3/1 48/4/1
f 66/1/1 67/2/1 50/3/1 49/4/1
f 67/1/1 68/2/1 51/3/1 50/4/1
f 69/1/1 70/2/1 53/3/1 52/4/1
f 70/1/1 71/2/1 54/3/1 53/4/1
f 71/1/1 72/2/1 55/3/1 54/4/1
f 72/1/1 73/2/1 56/3/1 55/4/1
f 73/1/1 74/2/1 57/3/1 56/4/1
f 74/1/1 75/2/1 58/3/1 57/4/1
f 75/1/1 76/2/1 59/3/1 58/4/1
f 76/1/1 77/2/1 60/3/1 59/4/1
f 77/1/1 78/2/1 61/3/1 60/4/1
f 78/1/1 79/2/1 62/3/1 61/4/1
f 79/1/1 80/2/1 63/3/1 62/4/1
f 80/1/1 81/2/1 64/3/1 63/4/1
f 81/1/1 82/2/1 65/3/1 64/4/1
f 82/1/1 83/2/1 66/3/1 65/4/1
f 83/1/1 84/2/1 67/3/1 66/4/1
f 84/1/1 85/2/1 68/3/1 67/4/1
f 86/1/1 87/2/1 70/3/1 69/4/1
f 87/1/1 88/2/1 71/3/1 70/4/1
f 88/1/1 89/2/1 72/3/1 71/4/1
f 89/1/1 90/2/1 73/3/1 72/4/1
f 90/1/1 91/2/1 74/3/1 73/4/1
f 91/1/1 92/2/1 75/3/1 74/4/1
f 92/1/1 93/2/1 76/3/1 75/4/1
f 93/1/1 94/2/1 77/3/1 76/4/1
f 94/1/1 95/2/1 78/3/1 77/4/1
f 95/1/1 96/2/1 79/3/1 78/4/1
f 96/1/1 97/2/1 80/3/1 79/4/1
f 97/1/1 98/2/1 81/3/1 80/4/1
f 98/1/1 99/2/1 82/3/1 81/4/1
f 99/1/1 100/2/1 83/3/1 82/4/1
f 100/1/1 101/2/1 84/3/1 83/4/1
f 101/1/1 102/2/1 85/3/1 84/4/1
f 103/1/1 104/2/1 87/3/1 86/4/1
f 104/1/1 105/2/1 88/3/1 87/4/1
f 105/1/1 106/2/1 89/3/1 88/4/1
f 106/1/1 107/2/1 90/3/1 89/4/1
f 107/1/1 108/2/1 91/3/1 90/4/1
f 108/1/1 109/2/1 92/3/1 91/4/1
f 109/1/1 110/2/1 93/3/1 92/4/1
f 110/1/1 111/2/1 94/3/1 93/4/1
f 111/1/1 112/2/1 95/3/1 94/4/1
f 112/1/1 113/2/1 96/3/1 95/4/1
f 113/1/1 114/2/1 97/3/1 96/4/1
f 114/1/1 115/2/1 98/3/1 97/4/1
f 115/1/1 116/2/1 99/3/1 98/4/1
f 116/1/1 117/2/1 100/3/1 99/4/1
f 117/1/1 118/2/1 101/3/1 100/4/1
f 118/1/1 119/2/1 102/3/1 101/4/1
f 120/1/1 121/2/1 104/3/1 103/4/1
f 121/1/1 122/2/1 105/3/1 104/4/1
f 122/1/1 123/2/1 106/3/1 105/4/1
f 123/1/1 124/2/1 107/3/1 106/4/1
f 124/1/1 125/2/1 108/3/1 107/4/1
f 125/1/1 126/2/1 109/3/1 108/4/1
f 126/1/1 127/2/1 110/3/1 109/4/1
f 127/1/1 128/2/1 111/3/1 110/4/1
f 128/1/1 129/2/1 112/3/1 111/4/1
f 129/1/1 130/2/1 113/3/1 112/4/1
f 130/1/1 131/2/1 114/3/1 113/4/1
f 131/1/1 132/2/1 115/3/1 114/4/1
f 132/1/1 133/2/1 116/3/1 115/4/1
f 133/1/1 134/2/1 117/3/1 116/4/1
f 134/1/1 135/2/1 118/3/1 117/4/1
f 135/1/1 136/2/1 119/3/1 118/4/1
f 137/1/1 138/2/1 121/3/1 120/4/1
f 138/1/1 139/2/1 122/3/1 121/4/1
f 139/1/1 140/2/1 123/3/1 122/4/1
f 140/1/1 141/2/1 124/3/1 123/4/1
f 141/1/1 142/2/1 125/3/1 124/4/1
f 142/1/1 143/2/1 126/3/1 125/4/1
f 143/1/1 144/2/1 127/3/1 126/4/1
f 144/1/1 145/2/1 128/3/1 127/4/1
f 145/1/1 146/2/1 129/3/1 128/4/1
f 146/1/1 147/2/1 130/3/1 129/4/1
f 147/1/1 148/2/1 131/3/1 130/4/1
f 148/1/1 149/2/1 132/3/1 131/4/1
f 149/1/1 150/2/1 133/3/1 132/4/1
f 150/1/1 151/2/1 134/3/1 133/4/1
f 151/1/1 152/2/1 135/3/1 134/4/1
f 152/1/1 153/2/1 136/3/1 135/4/1
f 154/1/1 155/2/1 138/3/1 137/4/1
f 155/1/1 156/2/1 139/3/1 138/4/1
f 156/1/1 157/2/1 140/3/1 139/4/1
f 157/1/1 158/2/1 141/3/1 140/4/1
f 158/1/1 159/2/1 142/3/1 141/4/1
f 159/1/1 160/2/1 143/3/1 142/4/1
f 160/1/1 161/2/1 144/3/1 143/4/1
f 161/1/1 162/2/1 145/3/1 144/4/1
f 162/1/1 163/2/1 146/3/1 145/4/1
f 163/1/1 164/2/1 147/3/1 146/4/1
f 164/1/1 165/2/1 148/3/1 147/4/1
f 165/1/1 166/2/1 149/3/1 148/4/1
f 166/1/1 167/2/1 150/3/1 149/4/1
f 167/1/1 168/2/1 151/3/1 150/4/1
f 168/1/1 169/2/1 152/3/1 151/4/1
f 169/1/1 170/2/1 153/3/1 152/4/1
f 171/1/1 172/2/1 155/3/1 154/4/1
f 172/1/1 173/2/1 156/3/1 155/4/1
f 173/1/1 174/2/1 157/3/1 156/4/1
f 174/1/1 175/2/1 158/3/1 157/4/1
f 175/1/1 176/2/1 159/3/1 158/4/1
f 176/1/1 177/2/1 160/3/1 159/4/1
f 177/1/1 178/2/1 161/3/1 160/4/1
f 178/1/1 179/2/1 162/3/1 161/4/1
f 179/1/1 180/2/1 163/3/1 162/4/1
f 180/1/1 181/2/1 164/3/1 163/4/1
f 181/1/1 182/2/1 165/3/1 164/4/1
f 182/1/1 183/2/1 166/3/1 165/4/1
f 183/1/1 184/2/1 167/3/1 166/4/1
f 184/1/1 185/2/1 168/3/1 167/4/1
f 185/1/1 186/2/1 169/3/1 168/4/1
f 186/1/1 187/2/1 170/3/1 169/4/1
f 188/1/1 189/2/1 172/3/1 171/4/1
f 189/1/1 190/2/1 173/3/1 172/4/1
f 190/1/1 191/2/1 174/3/1 173/4/1
f 191/1/1 192/2/1 175/3/1 174/4/1
f 192/1/1 193/2/1 176/3/1 175/4/1
f 193/1/1 194/2/1 177/3/1 176/4/1
f 194/1/1 195/2/1 178/3/1 177/4/1
f 195/1/1 196/2/1 179/3/1 178/4/1
f 196/1/1 197/2/1 180/3/1 179/4/1
f 197/1/1 198/2/1 181/3/1 180/4/1
f 198/1/1 199/2/1 182/3/1 181/4/1
f 199/1/1 200/2/1 183/3/1 182/4/1
f 200/1/1 201/2/1 184/3/1 183/4/1
f 201/1/1 202/2/1 185/3/1 184/4/1
f 202/1/1 203/2/1 186/3/1 185/4/1
f 203/1/1 204/2/1 187/3/1 186/4/1
f 205/1/1 206/2/1 189/3/1 188/4/1
f 206/1/1 207/2/1 190/3/1 189/4/1
f 207/1/1 208/2/1 191/3/1 190/4/1
f 208/1/1 209/2/1 192/3/1 191/4/1
f 209/1/1 210/2/1 193/3/1 192/4/1
f 210/1/1 211/2/1 194/3/1 193/4/1
f 211/1/1 212/2/1 195/3/1 194/4/1
f 212/1/1 213/2/1 196/3/1 195/4/1
f 213/1/1 214/2/1 197/3/1 196/4/1
f 214/1/1 215/2/1 198/3/1 197/4/1
f 215/1/1 216/2/1 199/3/1 198/4/1
f 216/1/1 217/2/1 200/3/1 199/4/1
f 217/1/1 218/2/1 201/3/1 200/4/1
f 218/1/1 219/2/1 202/3/1 201/4/1
f 219/1/1 220/2/1 203/3/1 202/4/1
f 220/1/1 221/2/1 204/3/1 203/4/1
f 222/1/1 223/2/1 206/3/1 205/4/1
f 223/1/1 224/2/1 207/3/1 206/4/1
f 224/1/1 225/2/1 208/3/1 207/4/1
f 225/1/1 226/2/1 209/3/1 208/4/1
f 226/1/1 227/2/1 210/3/1 209/4/1
f 227/1/1 228/2/1 211/3/1 210/4/1
f 228/1/1 229/2/1 212/3/1 211/4/1
f 229/1/1 230/2/1 213/3/1 212/4/1
f 230/1/1 231/2/1 214/3/1 213/4/1
f 231/1/1 232/2/1 215/3/1 214/4/1
f 232/1/1 233/2/1 216/3/1 215/4/1
f 233/1/1 234/2/1 217/3/1 216/4/1
f 234/1/1 235/2/1 218/3/1 217/4/1
f 235/1/1 236/2/1 219/3/1 218/4/1
f 236/1/1 237/2/1 220/3/1 219/4/1
f 237/1/1 238/2/1 221/3/1 220/4/1
f 239/1/1 240/2/1 223/3/1 222/4/1
f 240/1/1 241/2/1 224/3/1 223/4/1
f 241/1/1 242/2/1 225/3/1 224/4/1
f 242/1/1 243/2/1 226/3/1 225/4/1
f 243/1/1 244/2/1 227/3/1 226/4/1
f 244/1/1 245/2/1 228/3/1 227/4/1
f 245/1/1 246/2/1 229/3/1 228/4/1
f 246/1/1 247/2/1 230/3/1 229/4/1
f 247/1/1 248/2/1 231/3/1 230/4/1
f 248/1/1 249/2/1 232/3/1 231/4/1
f 249/1/1 250/2/1 233/3/1 232/4/1
f 250/1/1 251/2/1 234/3/1 233/4/1
f 251/1/1 252/2/1 235/3/1 234/4/1
f 252/1/1 253/2/1 236/3/1 235/4/1
f 253/1/1 254/2/1 237/3/1 236/4/1
f 254/1/1 255/2/1 238/3/1 237/4/1
f 256/1/1 257/2/1 240/3/1 239/4/1
f 257/1/1 258/2/1 241/3/1 240/4/1
f 258/1/1 259/2/1 242/3/1 241/4/1
f 259/1/1 260/2/1 243/3/1 242/4/1
f 260/1/1 261/2/1 244/3/1 243/4/1
f 261/1/1 262/2/1 245/3/1 244/4/1
f 262/1/1 263/2/1 246/3/1 245/4/1
f 263/1/1 264/2/1 247/3/1 246/4/1
f 264/1/1 265/2/1 248/3/1 247/4/1
f 265/1/1 266/2/1 249/3/1 248/4/1
f 266/1/1 267/2/1 250/3/1 249/4/1
f 267/1/1 268/2/1 251/3/1 250/4/1
f 268/1/1 269/2/1 252/3/1 251/4/1
f 269/1/1 270/2/1 253/3/1 252/4/1
f 270/1/1 271/2/1 254/3/1 253/4/1
f 271/1/1 272/2/1 255/3/1 254/4/1
f 273/1/1 274/2/1 257/3/1 256/4/1
f 274/1/1 275/2/1 258/3/1 257/4/1
f 275/1/1 276/2/1 259/3/1 258/4/1
f 276/1/1 277/2/1 260/3/1 259/4/1
f 277/1/1 278/2/1 261/3/1 260/4/1
f 278/1/1 279/2/1 262/3/1 261/4/1
f 279/1/1 280/2/1 263/3/1 262/4/1
f 280/1/1 281/2/1 264/3/1 263/4/1
f 281/1/1 282/2/1 265/3/1 264/4/1
f 282/1/1 283/2/1 266/3/1 265/4/1
f 283/1/1 284/2/1 267/3/1 266/4/1
f 284/1/1 285/2/1 268/3/1 267/4/1
f 285/1/1 286/2/1 269/3/1 268/4/1
f 286/1/1 287/2/1 270/3/1 269/4/1
f 287/1/1 288/2/1 271/3/1 270/4/1
f 288/1/1 289/2/1 272/3/1 271/4/1

g mesh_0002
f 1/5/1 2/6/1 3/7/1 4/8/1
f 2/9/1 5/10/1 6/11/1 3/12/1
f 5/13/1 7/14/1 8/15/1 6/16/1
f 7/5/1 9/6/1 10/7/1 8/8/1
f 9/5/1 11/6/1 12/7/1 10/8/1
f 11/5/1 13/6/1 14/7/1 12/8/1
f 13/5/1 15/6/1 16/7/1 14/8/1
f 15/9/1 17/10/1 18/11/1 16/12/1
f 17/13/1 19/14/1 20/15/1 18/16/1
f 19/5/1 21/6/1 22/7/1 20/8/1
f 21/5/1 23/6/1 24/7/1 22/8/1
f 23/5/1 25/6/1 26/7/1 24/8/1
f 25/5/1 27/6/1 28/7/1 26/8/1
f 27/9/1 29/10/1 30/11/1 28/12/1
f 29/13/1 31/14/1 32/15/1 30/16/1
f 31/5/1 33/6/1 34/7/1 32/8/1
f 35/17/1 36/18/1 2/19/1 1/20/1
f 36/21/1 37/22/1 5/23/1 2/24/1
f 37/25/1 38/26/1 7/27/1 5/28/1
f 38/29/1 39/30/1 9/31/1 7/32/1
f 39/33/1 40/34/1 11/35/1 9/36/1
f 40/37/1 41/38/1 13/39/1 11/40/1
f 41/17/1 42/18/1 15/19/1 13/20/1
f 42/21/1 43/22/1 17/23/1 15/24/1
f 43/25/1 44/26/1 19/27/1 17/28/1
f 44/29/1 45/30/1 21/31/1 19/32/1
f 45/33/1 46/34/1 23/35/1 21/36/1
f 46/37/1 47/38/1 25/39/1 23/40/1
f 47/17/1 48/18/1 27/19/1 25/20/1
f 48/21/1 49/22/1 29/23/1 27/24/1
f 49/25/1 50/26/1 31/27/1 29/28/1
f 50/29/1 51/30/1 33/31/1 31/32/1
f 52/41/1 53/42/1 36/43/1 35/44/1
f 53/45/1 54/46/1 37/47/1 36/48/1
f 54/49/1 55/50/1 38/51/1 37/52/1
f 55/53/1 56/54/1 39/55/1 38/56/1
f 56/57/1 57/58/1 40/59/1 39/60/1
f 57/61/1 58/62/1 41/63/1 40/64/1
f 58/41/1 59/42/1 42/43/1 41/44/1
f 59/45/1 60/46/1 43/47/1 42/48/1
f 60/49/1 61/50/1 44/51/1 43/52/1
f 61/53/1 62/54/1 45/55/1 44/56/1
f 62/57/1 63/58/1 46/59/1 45/60/1
f 63/61/1 64/62/1 47/63/1 46/64/1
f 64/41/1 65/42/1 48/43/1 47/44/1
f 65/45/1 66/46/1 49/47/1 48/48/1
f 66/49/1 67/50/1 50/51/1 49/52/1
f 67/53/1 68/54/1 51/55/1 50/56/1
f 69/65/1 70/66/1 53/67/1 52/68/1
f 70/69/1 71/70/1 54/71/1 53/72/1
f 71/73/1 72/74/1 55/75/1 54/76/1
f 72/65/1 73/66/1 56/67/1 55/68/1
f 73/65/1 74/66/1 57/67/1 56/68/1
f 74/65/1 75/66/1 58/67/1 57/68/1
f 75/65/1 76/66/1 59/67/1 58/68/1
f 76/69/1 77/70/1 60/71/1 59/72/1
f 77/73/1 78/74/1 61/75/1 60/76/1
f 78/65/1 79/66/1 62/67/1 61/68/1
f 79/65/1 80/66/1 63/67/1 62/68/1
f 80/65/1 81/66/1 64/67/1 63/68/1
f 81/65/1 82/66/1 65/67/1 64/68/1
f 82/69/1 83/70/1 66/71/1 65/72/1
f 83/73/1 84/74/1 67/75/1 66/76/1
f 84/65/1 85/66/1 68/67/1 67/68/1
f 86/77/1 87/78/1 70/79/1 69/80/1
f 87/81/1 88/82/1 71/83/1 70/84/1
f 88/85/1 89/86/1 72/87/1 71/88/1
f 89/77/1 90/78/1 73/79/1 72/80/1
f 90/77/1 91/78/1 74/79/1 73/80/1
f 91/77/1 92/78/1 75/79/1 74/80/1
f 92/77/1 93/78/1 76/79/1 75/80/1
f 93/81/1 94/82/1 77/83/1 76/84/1
f 94/85/1 95/86/1 78/87/1 77/88/1
f 95/77/1 96/78/1 79/79/1 78/80/1
f 96/77/1 97/78/1 80/79/1 79/80/1
f 97/77/1 98/78/1 81/79/1 80/80/1
f 98/77/1 99/78/1 82/79/1 81/80/1
f 99/81/1 100/82/1 83/83/1 82/84/1
f 100/85/1 101/86/1 84/87/1 83/88/1
f 101/77/1 102/78/1 85/79/1 84/80/1

g mesh_0003
f 124/89/1 125/90/1 108/91/1 107/92/1
f 140/89/1 141/90/1 124/91/1 123/92/1
f 141/89/1 142/90/1 125/91/1 124/92/1
f 156/89/1 157/90/1 140/91/1 139/92/1
f 157/89/1 158/90/1 141/91/1 140/92/1
f 158/89/1 159/90/1 142/91/1 141/92/1
f 159/89/1 160/90/1 143/91/1 142/92/1
f 160/89/1 161/90/1 144/91/1 143/92/1
f 161/89/1 162/90/1 145/91/1 144/92/1
f 174/89/1 175/90/1 158/91/1 157/92/1
f 175/89/1 176/90/1 159/91/1 158/92/1
f 192/89/1 193/90/1 176/91/1 175/92/1

g mesh_0004
f 69/93/1 70/94/1 53/95/1 52/96/1
f 70/93/1 71/94/1 54/95/1 53/96/1
f 71/93/1 72/94/1 55/95/1 54/96/1
f 72/93/1 73/94/1 56/95/1 55/96/1
f 73/93/1 74/94/1 57/95/1 56/96/1
f 74/93/1 75/94/1 58/95/1 57/96/1
f 75/93/1 76/94/1 59/95/1 58/96/1
f 76/93/1 77/94/1 60/95/1 59/96/1
f 77/93/1 78/94/1 61/95/1 60/96/1
f 78/93/1 79/94/1 62/95/1 61/96/1
f 79/93/1 80/94/1 63/95/1 62/96/1
f 80/93/1 81/94/1 64/95/1 63/96/1
f 81/93/1 82/94/1 65/95/1 64/96/1
f 82/93/1 83/94/1 66/95/1 65/96/1
f 83/93/1 84/94/1 67/95/1 66/96/1
f 84/93/1 85/94/1 68/95/1 67/96/1

