# Wavefront OBJ file automatically generated by Tiled2Unity

# Vertices (Count = 156)
v -2 -4 0
v -3 -4 0
v -3 -3 0
v -2 -3 0
v -4 -4 0
v -4 -3 0
v -5 -4 0
v -5 -3 0
v -6 -4 0
v -6 -3 0
v -7 -4 0
v -7 -3 0
v -8 -4 0
v -8 -3 0
v -9 -4 0
v -9 -3 0
v -10 -4 0
v -10 -3 0
v -11 -4 0
v -11 -3 0
v -12 -4 0
v -12 -3 0
v -13 -4 0
v -13 -3 0
v -14 -4 0
v -14 -3 0
v -2 -5 0
v -3 -5 0
v -4 -5 0
v -5 -5 0
v -6 -5 0
v -7 -5 0
v -8 -5 0
v -9 -5 0
v -10 -5 0
v -11 -5 0
v -12 -5 0
v -13 -5 0
v -14 -5 0
v -2 -6 0
v -3 -6 0
v -4 -6 0
v -5 -6 0
v -6 -6 0
v -7 -6 0
v -8 -6 0
v -9 -6 0
v -10 -6 0
v -11 -6 0
v -12 -6 0
v -13 -6 0
v -14 -6 0
v -2 -7 0
v -3 -7 0
v -4 -7 0
v -5 -7 0
v -6 -7 0
v -7 -7 0
v -8 -7 0
v -9 -7 0
v -10 -7 0
v -11 -7 0
v -12 -7 0
v -13 -7 0
v -14 -7 0
v -2 -8 0
v -3 -8 0
v -4 -8 0
v -5 -8 0
v -6 -8 0
v -7 -8 0
v -8 -8 0
v -9 -8 0
v -10 -8 0
v -11 -8 0
v -12 -8 0
v -13 -8 0
v -14 -8 0
v -2 -9 0
v -3 -9 0
v -4 -9 0
v -5 -9 0
v -6 -9 0
v -7 -9 0
v -8 -9 0
v -9 -9 0
v -10 -9 0
v -11 -9 0
v -12 -9 0
v -13 -9 0
v -14 -9 0
v -2 -10 0
v -3 -10 0
v -4 -10 0
v -5 -10 0
v -6 -10 0
v -7 -10 0
v -8 -10 0
v -9 -10 0
v -10 -10 0
v -11 -10 0
v -12 -10 0
v -13 -10 0
v -14 -10 0
v -2 -11 0
v -3 -11 0
v -4 -11 0
v -5 -11 0
v -6 -11 0
v -7 -11 0
v -8 -11 0
v -9 -11 0
v -10 -11 0
v -11 -11 0
v -12 -11 0
v -13 -11 0
v -14 -11 0
v -2 -12 0
v -3 -12 0
v -4 -12 0
v -5 -12 0
v -6 -12 0
v -7 -12 0
v -8 -12 0
v -9 -12 0
v -10 -12 0
v -11 -12 0
v -12 -12 0
v -13 -12 0
v -14 -12 0
v -2 -13 0
v -3 -13 0
v -4 -13 0
v -5 -13 0
v -6 -13 0
v -7 -13 0
v -8 -13 0
v -9 -13 0
v -10 -13 0
v -11 -13 0
v -12 -13 0
v -13 -13 0
v -14 -13 0
v -2 -14 0
v -3 -14 0
v -4 -14 0
v -5 -14 0
v -6 -14 0
v -7 -14 0
v -8 -14 0
v -9 -14 0
v -10 -14 0
v -11 -14 0
v -12 -14 0
v -13 -14 0
v -14 -14 0

# Texture cooridinates (Count = 456)
vt 0.1250076 0.7168228
vt 0.1874924 0.7168228
vt 0.1874924 0.7876019
vt 0.1250076 0.7876019
vt 0.1875076 0.7168228
vt 0.2499924 0.7168228
vt 0.2499924 0.7876019
vt 0.1875076 0.7876019
vt 0.2500076 0.7168228
vt 0.3124924 0.7168228
vt 0.3124924 0.7876019
vt 0.2500076 0.7876019
vt 0.3125076 0.7168228
vt 0.3749924 0.7168228
vt 0.3749924 0.7876019
vt 0.3125076 0.7876019
vt 0.3750076 0.7168228
vt 0.4374924 0.7168228
vt 0.4374924 0.7876019
vt 0.3750076 0.7876019
vt 0.5000076 0.7168228
vt 0.5624924 0.7168228
vt 0.5624924 0.7876019
vt 0.5000076 0.7876019
vt 0.5625076 0.7168228
vt 0.6249924 0.7168228
vt 0.6249924 0.7876019
vt 0.5625076 0.7876019
vt 0.6250076 0.7168228
vt 0.6874924 0.7168228
vt 0.6874924 0.7876019
vt 0.6250076 0.7876019
vt 0.6875076 0.7168228
vt 0.7499924 0.7168228
vt 0.7499924 0.7876019
vt 0.6875076 0.7876019
vt 0.7500076 0.7168228
vt 0.8124924 0.7168228
vt 0.8124924 0.7876019
vt 0.7500076 0.7876019
vt 0.8125076 0.7168228
vt 0.8749924 0.7168228
vt 0.8749924 0.7876019
vt 0.8125076 0.7876019
vt 0.1250076 0.6460264
vt 0.1874924 0.6460264
vt 0.1874924 0.7168055
vt 0.1250076 0.7168055
vt 0.1875076 0.6460264
vt 0.2499924 0.6460264
vt 0.2499924 0.7168055
vt 0.1875076 0.7168055
vt 0.2500076 0.6460264
vt 0.3124924 0.6460264
vt 0.3124924 0.7168055
vt 0.2500076 0.7168055
vt 0.3125076 0.6460264
vt 0.3749924 0.6460264
vt 0.3749924 0.7168055
vt 0.3125076 0.7168055
vt 0.3750076 0.6460264
vt 0.4374924 0.6460264
vt 0.4374924 0.7168055
vt 0.3750076 0.7168055
vt 0.5000076 0.6460264
vt 0.5624924 0.6460264
vt 0.5624924 0.7168055
vt 0.5000076 0.7168055
vt 0.5625076 0.6460264
vt 0.6249924 0.6460264
vt 0.6249924 0.7168055
vt 0.5625076 0.7168055
vt 0.6250076 0.6460264
vt 0.6874924 0.6460264
vt 0.6874924 0.7168055
vt 0.6250076 0.7168055
vt 0.6875076 0.6460264
vt 0.7499924 0.6460264
vt 0.7499924 0.7168055
vt 0.6875076 0.7168055
vt 0.7500076 0.6460264
vt 0.8124924 0.6460264
vt 0.8124924 0.7168055
vt 0.7500076 0.7168055
vt 0.8125076 0.6460264
vt 0.8749924 0.6460264
vt 0.8749924 0.7168055
vt 0.8125076 0.7168055
vt 0.1250076 0.5752299
vt 0.1874924 0.5752299
vt 0.1874924 0.6460091
vt 0.1250076 0.6460091
vt 0.8124924 0.2212303
vt 0.7500076 0.2212303
vt 0.7500076 0.1504511
vt 0.8124924 0.1504511
vt 0.3125076 0.2212476
vt 0.3749924 0.2212476
vt 0.3749924 0.2920268
vt 0.3125076 0.2920268
vt 0.3125076 0.5752299
vt 0.3749924 0.5752299
vt 0.3749924 0.6460091
vt 0.3125076 0.6460091
vt 0.5000076 0.5752299
vt 0.5624924 0.5752299
vt 0.5624924 0.6460091
vt 0.5000076 0.6460091
vt 0.5625076 0.5752299
vt 0.6249924 0.5752299
vt 0.6249924 0.6460091
vt 0.5625076 0.6460091
vt 0.6250076 0.5752299
vt 0.6874924 0.5752299
vt 0.6874924 0.6460091
vt 0.6250076 0.6460091
vt 0.6875076 0.2212476
vt 0.7499924 0.2212476
vt 0.7499924 0.2920268
vt 0.6875076 0.2920268
vt 0.7500076 0.2212476
vt 0.8124924 0.2212476
vt 0.8124924 0.2920268
vt 0.7500076 0.2920268
vt 0.8125076 0.5752299
vt 0.8749924 0.5752299
vt 0.8749924 0.6460091
vt 0.8125076 0.6460091
vt 0.1250076 0.5044334
vt 0.1874924 0.5044334
vt 0.1874924 0.5752126
vt 0.1250076 0.5752126
vt 0.3125076 0.1504511
vt 0.3749924 0.1504511
vt 0.3749924 0.2212303
vt 0.3125076 0.2212303
vt 0.3125076 0.5044334
vt 0.3749924 0.5044334
vt 0.3749924 0.5752126
vt 0.3125076 0.5752126
vt 0.3750076 0.5044334
vt 0.4374924 0.5044334
vt 0.4374924 0.5752126
vt 0.3750076 0.5752126
vt 0.5625076 0.5044334
vt 0.6249924 0.5044334
vt 0.6249924 0.5752126
vt 0.5625076 0.5752126
vt 0.6250076 0.5044334
vt 0.6874924 0.5044334
vt 0.6874924 0.5752126
vt 0.6250076 0.5752126
vt 0.6875076 0.1504511
vt 0.7499924 0.1504511
vt 0.7499924 0.2212303
vt 0.6875076 0.2212303
vt 0.8125076 0.5044334
vt 0.8749924 0.5044334
vt 0.8749924 0.5752126
vt 0.8125076 0.5752126
vt 0.1250076 0.433637
vt 0.1874924 0.433637
vt 0.1874924 0.5044161
vt 0.1250076 0.5044161
vt 0.1875076 0.433637
vt 0.2499924 0.433637
vt 0.2499924 0.5044161
vt 0.1875076 0.5044161
vt 0.5625076 0.433637
vt 0.6249924 0.433637
vt 0.6249924 0.5044161
vt 0.5625076 0.5044161
vt 0.3750076 0.433637
vt 0.4374924 0.433637
vt 0.4374924 0.5044161
vt 0.3750076 0.5044161
vt 0.7500076 0.433637
vt 0.8124924 0.433637
vt 0.8124924 0.5044161
vt 0.7500076 0.5044161
vt 0.8125076 0.433637
vt 0.8749924 0.433637
vt 0.8749924 0.5044161
vt 0.8125076 0.5044161
vt 0.1250076 0.3628405
vt 0.1874924 0.3628405
vt 0.1874924 0.4336197
vt 0.1250076 0.4336197
vt 0.1875076 0.3628405
vt 0.2499924 0.3628405
vt 0.2499924 0.4336197
vt 0.1875076 0.4336197
vt 0.3750076 0.3628405
vt 0.4374924 0.3628405
vt 0.4374924 0.4336197
vt 0.3750076 0.4336197
vt 0.7500076 0.3628405
vt 0.8124924 0.3628405
vt 0.8124924 0.4336197
vt 0.7500076 0.4336197
vt 0.8125076 0.3628405
vt 0.8749924 0.3628405
vt 0.8749924 0.4336197
vt 0.8125076 0.4336197
vt 0.1250076 0.292044
vt 0.1874924 0.292044
vt 0.1874924 0.3628232
vt 0.1250076 0.3628232
vt 0.1875076 0.292044
vt 0.2499924 0.292044
vt 0.2499924 0.3628232
vt 0.1875076 0.3628232
vt 0.2500076 0.292044
vt 0.3124924 0.292044
vt 0.3124924 0.3628232
vt 0.2500076 0.3628232
vt 0.3125076 0.292044
vt 0.3749924 0.292044
vt 0.3749924 0.3628232
vt 0.3125076 0.3628232
vt 0.3750076 0.292044
vt 0.4374924 0.292044
vt 0.4374924 0.3628232
vt 0.3750076 0.3628232
vt 0.4375076 0.292044
vt 0.4999924 0.292044
vt 0.4999924 0.3628232
vt 0.4375076 0.3628232
vt 0.5000076 0.292044
vt 0.5624924 0.292044
vt 0.5624924 0.3628232
vt 0.5000076 0.3628232
vt 0.5625076 0.292044
vt 0.6249924 0.292044
vt 0.6249924 0.3628232
vt 0.5625076 0.3628232
vt 0.6250076 0.292044
vt 0.6874924 0.292044
vt 0.6874924 0.3628232
vt 0.6250076 0.3628232
vt 0.6875076 0.292044
vt 0.7499924 0.292044
vt 0.7499924 0.3628232
vt 0.6875076 0.3628232
vt 0.7500076 0.292044
vt 0.8124924 0.292044
vt 0.8124924 0.3628232
vt 0.7500076 0.3628232
vt 0.8125076 0.292044
vt 0.8749924 0.292044
vt 0.8749924 0.3628232
vt 0.8125076 0.3628232
vt 0.1250076 0.2212476
vt 0.1874924 0.2212476
vt 0.1874924 0.2920268
vt 0.1250076 0.2920268
vt 0.1875076 0.2212476
vt 0.2499924 0.2212476
vt 0.2499924 0.2920268
vt 0.1875076 0.2920268
vt 0.2500076 0.2212476
vt 0.3124924 0.2212476
vt 0.3124924 0.2920268
vt 0.2500076 0.2920268
vt 0.3750076 0.2212476
vt 0.4374924 0.2212476
vt 0.4374924 0.2920268
vt 0.3750076 0.2920268
vt 0.4375076 0.2212476
vt 0.4999924 0.2212476
vt 0.4999924 0.2920268
vt 0.4375076 0.2920268
vt 0.5000076 0.2212476
vt 0.5624924 0.2212476
vt 0.5624924 0.2920268
vt 0.5000076 0.2920268
vt 0.5625076 0.2212476
vt 0.6249924 0.2212476
vt 0.6249924 0.2920268
vt 0.5625076 0.2920268
vt 0.6250076 0.2212476
vt 0.6874924 0.2212476
vt 0.6874924 0.2920268
vt 0.6250076 0.2920268
vt 0.8125076 0.2212476
vt 0.8749924 0.2212476
vt 0.8749924 0.2920268
vt 0.8125076 0.2920268
vt 0.1250076 0.1504511
vt 0.1874924 0.1504511
vt 0.1874924 0.2212303
vt 0.1250076 0.2212303
vt 0.1875076 0.1504511
vt 0.2499924 0.1504511
vt 0.2499924 0.2212303
vt 0.1875076 0.2212303
vt 0.3750076 0.1504511
vt 0.4374924 0.1504511
vt 0.4374924 0.2212303
vt 0.3750076 0.2212303
vt 0.4375076 0.1504511
vt 0.4999924 0.1504511
vt 0.4999924 0.2212303
vt 0.4375076 0.2212303
vt 0.5000076 0.1504511
vt 0.5624924 0.1504511
vt 0.5624924 0.2212303
vt 0.5000076 0.2212303
vt 0.5625076 0.1504511
vt 0.6249924 0.1504511
vt 0.6249924 0.2212303
vt 0.5625076 0.2212303
vt 0.6250076 0.1504511
vt 0.6874924 0.1504511
vt 0.6874924 0.2212303
vt 0.6250076 0.2212303
vt 0.8125076 0.1504511
vt 0.8749924 0.1504511
vt 0.8749924 0.2212303
vt 0.8125076 0.2212303
vt 0.1250076 0.07965463
vt 0.1874924 0.07965463
vt 0.1874924 0.1504338
vt 0.1250076 0.1504338
vt 0.1875076 0.07965463
vt 0.2499924 0.07965463
vt 0.2499924 0.1504338
vt 0.1875076 0.1504338
vt 0.2500076 0.07965463
vt 0.3124924 0.07965463
vt 0.3124924 0.1504338
vt 0.2500076 0.1504338
vt 0.3125076 0.07965463
vt 0.3749924 0.07965463
vt 0.3749924 0.1504338
vt 0.3125076 0.1504338
vt 0.3750076 0.07965463
vt 0.4374924 0.07965463
vt 0.4374924 0.1504338
vt 0.3750076 0.1504338
vt 0.4375076 0.07965463
vt 0.4999924 0.07965463
vt 0.4999924 0.1504338
vt 0.4375076 0.1504338
vt 0.5000076 0.07965463
vt 0.5624924 0.07965463
vt 0.5624924 0.1504338
vt 0.5000076 0.1504338
vt 0.5625076 0.07965463
vt 0.6249924 0.07965463
vt 0.6249924 0.1504338
vt 0.5625076 0.1504338
vt 0.6250076 0.07965463
vt 0.6874924 0.07965463
vt 0.6874924 0.1504338
vt 0.6250076 0.1504338
vt 0.6875076 0.07965463
vt 0.7499924 0.07965463
vt 0.7499924 0.1504338
vt 0.6875076 0.1504338
vt 0.7500076 0.07965463
vt 0.8124924 0.07965463
vt 0.8124924 0.1504338
vt 0.7500076 0.1504338
vt 0.8125076 0.07965463
vt 0.8749924 0.07965463
vt 0.8749924 0.1504338
vt 0.8125076 0.1504338
vt 0.1250076 0.008858204
vt 0.1874924 0.008858204
vt 0.1874924 0.07963735
vt 0.1250076 0.07963735
vt 0.1875076 0.008858204
vt 0.2499924 0.008858204
vt 0.2499924 0.07963735
vt 0.1875076 0.07963735
vt 0.2500076 0.008858204
vt 0.3124924 0.008858204
vt 0.3124924 0.07963735
vt 0.2500076 0.07963735
vt 0.3125076 0.008858204
vt 0.3749924 0.008858204
vt 0.3749924 0.07963735
vt 0.3125076 0.07963735
vt 0.3750076 0.008858204
vt 0.4374924 0.008858204
vt 0.4374924 0.07963735
vt 0.3750076 0.07963735
vt 0.4375076 0.008858204
vt 0.4999924 0.008858204
vt 0.4999924 0.07963735
vt 0.4375076 0.07963735
vt 0.5000076 0.008858204
vt 0.5624924 0.008858204
vt 0.5624924 0.07963735
vt 0.5000076 0.07963735
vt 0.5625076 0.008858204
vt 0.6249924 0.008858204
vt 0.6249924 0.07963735
vt 0.5625076 0.07963735
vt 0.6250076 0.008858204
vt 0.6874924 0.008858204
vt 0.6874924 0.07963735
vt 0.6250076 0.07963735
vt 0.6875076 0.008858204
vt 0.7499924 0.008858204
vt 0.7499924 0.07963735
vt 0.6875076 0.07963735
vt 0.7500076 0.008858204
vt 0.8124924 0.008858204
vt 0.8124924 0.07963735
vt 0.7500076 0.07963735
vt 0.8125076 0.008858204
vt 0.8749924 0.008858204
vt 0.8749924 0.07963735
vt 0.8125076 0.07963735
vt 0.1875076 0.5752299
vt 0.2499924 0.5752299
vt 0.2499924 0.6460091
vt 0.1875076 0.6460091
vt 0.2500076 0.5752299
vt 0.3124924 0.5752299
vt 0.3124924 0.6460091
vt 0.2500076 0.6460091
vt 0.6875076 0.5752299
vt 0.7499924 0.5752299
vt 0.7499924 0.6460091
vt 0.6875076 0.6460091
vt 0.7500076 0.5752299
vt 0.8124924 0.5752299
vt 0.8124924 0.6460091
vt 0.7500076 0.6460091
vt 0.1875076 0.5044334
vt 0.2499924 0.5044334
vt 0.2499924 0.5752126
vt 0.1875076 0.5752126
vt 0.2500076 0.5044334
vt 0.3124924 0.5044334
vt 0.3124924 0.5752126
vt 0.2500076 0.5752126
vt 0.6875076 0.5044334
vt 0.7499924 0.5044334
vt 0.7499924 0.5752126
vt 0.6875076 0.5752126
vt 0.7500076 0.5044334
vt 0.8124924 0.5044334
vt 0.8124924 0.5752126
vt 0.7500076 0.5752126
vt 0.2500076 0.1504511
vt 0.3124924 0.1504511
vt 0.3124924 0.2212303
vt 0.2500076 0.2212303
vt 6.103516E-05 0.500061
vt 0.499939 0.500061
vt 0.499939 0.999939
vt 6.103516E-05 0.999939

# Normal
vn 0 0 -1

# Groups (Count = 3)

g mesh_0001
f 1/1/1 2/2/1 3/3/1 4/4/1
f 2/5/1 5/6/1 6/7/1 3/8/1
f 5/9/1 7/10/1 8/11/1 6/12/1
f 7/13/1 9/14/1 10/15/1 8/16/1
f 9/17/1 11/18/1 12/19/1 10/20/1
f 11/21/1 13/22/1 14/23/1 12/24/1
f 13/21/1 15/22/1 16/23/1 14/24/1
f 15/25/1 17/26/1 18/27/1 16/28/1
f 17/29/1 19/30/1 20/31/1 18/32/1
f 19/33/1 21/34/1 22/35/1 20/36/1
f 21/37/1 23/38/1 24/39/1 22/40/1
f 23/41/1 25/42/1 26/43/1 24/44/1
f 27/45/1 28/46/1 2/47/1 1/48/1
f 28/49/1 29/50/1 5/51/1 2/52/1
f 29/53/1 30/54/1 7/55/1 5/56/1
f 30/57/1 31/58/1 9/59/1 7/60/1
f 31/61/1 32/62/1 11/63/1 9/64/1
f 32/65/1 33/66/1 13/67/1 11/68/1
f 33/65/1 34/66/1 15/67/1 13/68/1
f 34/69/1 35/70/1 17/71/1 15/72/1
f 35/73/1 36/74/1 19/75/1 17/76/1
f 36/77/1 37/78/1 21/79/1 19/80/1
f 37/81/1 38/82/1 23/83/1 21/84/1
f 38/85/1 39/86/1 25/87/1 23/88/1
f 40/89/1 41/90/1 28/91/1 27/92/1
f 41/93/1 42/94/1 29/95/1 28/96/1
f 42/97/1 43/98/1 30/99/1 29/100/1
f 43/101/1 44/102/1 31/103/1 30/104/1
f 44/105/1 45/106/1 32/107/1 31/108/1
f 45/105/1 46/106/1 33/107/1 32/108/1
f 46/109/1 47/110/1 34/111/1 33/112/1
f 47/109/1 48/110/1 35/111/1 34/112/1
f 48/113/1 49/114/1 36/115/1 35/116/1
f 49/117/1 50/118/1 37/119/1 36/120/1
f 50/121/1 51/122/1 38/123/1 37/124/1
f 51/125/1 52/126/1 39/127/1 38/128/1
f 53/129/1 54/130/1 41/131/1 40/132/1
f 54/123/1 55/124/1 42/121/1 41/122/1
f 55/133/1 56/134/1 43/135/1 42/136/1
f 56/137/1 57/138/1 44/139/1 43/140/1
f 57/141/1 58/142/1 45/143/1 44/144/1
f 58/105/1 59/106/1 46/107/1 45/108/1
f 59/109/1 60/110/1 47/111/1 46/112/1
f 60/145/1 61/146/1 48/147/1 47/148/1
f 61/149/1 62/150/1 49/151/1 48/152/1
f 62/153/1 63/154/1 50/155/1 49/156/1
f 63/95/1 64/96/1 51/93/1 50/94/1
f 64/157/1 65/158/1 52/159/1 51/160/1
f 66/161/1 67/162/1 54/163/1 53/164/1
f 67/165/1 68/166/1 55/167/1 54/168/1
f 68/169/1 69/170/1 56/171/1 55/172/1
f 69/169/1 70/170/1 57/171/1 56/172/1
f 70/173/1 71/174/1 58/175/1 57/176/1
f 71/169/1 72/170/1 59/171/1 58/172/1
f 72/169/1 73/170/1 60/171/1 59/172/1
f 73/169/1 74/170/1 61/171/1 60/172/1
f 74/169/1 75/170/1 62/171/1 61/172/1
f 75/169/1 76/170/1 63/171/1 62/172/1
f 76/177/1 77/178/1 64/179/1 63/180/1
f 77/181/1 78/182/1 65/183/1 64/184/1
f 79/185/1 80/186/1 67/187/1 66/188/1
f 80/189/1 81/190/1 68/191/1 67/192/1
f 81/193/1 82/194/1 69/195/1 68/196/1
f 82/193/1 83/194/1 70/195/1 69/196/1
f 83/193/1 84/194/1 71/195/1 70/196/1
f 84/193/1 85/194/1 72/195/1 71/196/1
f 85/193/1 86/194/1 73/195/1 72/196/1
f 86/193/1 87/194/1 74/195/1 73/196/1
f 87/193/1 88/194/1 75/195/1 74/196/1
f 88/193/1 89/194/1 76/195/1 75/196/1
f 89/197/1 90/198/1 77/199/1 76/200/1
f 90/201/1 91/202/1 78/203/1 77/204/1
f 92/205/1 93/206/1 80/207/1 79/208/1
f 93/209/1 94/210/1 81/211/1 80/212/1
f 94/213/1 95/214/1 82/215/1 81/216/1
f 95/217/1 96/218/1 83/219/1 82/220/1
f 96/221/1 97/222/1 84/223/1 83/224/1
f 97/225/1 98/226/1 85/227/1 84/228/1
f 98/229/1 99/230/1 86/231/1 85/232/1
f 99/233/1 100/234/1 87/235/1 86/236/1
f 100/237/1 101/238/1 88/239/1 87/240/1
f 101/241/1 102/242/1 89/243/1 88/244/1
f 102/245/1 103/246/1 90/247/1 89/248/1
f 103/249/1 104/250/1 91/251/1 90/252/1
f 105/253/1 106/254/1 93/255/1 92/256/1
f 106/257/1 107/258/1 94/259/1 93/260/1
f 107/261/1 108/262/1 95/263/1 94/264/1
f 108/97/1 109/98/1 96/99/1 95/100/1
f 109/265/1 110/266/1 97/267/1 96/268/1
f 110/269/1 111/270/1 98/271/1 97/272/1
f 111/273/1 112/274/1 99/275/1 98/276/1
f 112/277/1 113/278/1 100/279/1 99/280/1
f 113/281/1 114/282/1 101/283/1 100/284/1
f 114/117/1 115/118/1 102/119/1 101/120/1
f 115/121/1 116/122/1 103/123/1 102/124/1
f 116/285/1 117/286/1 104/287/1 103/288/1
f 118/289/1 119/290/1 106/291/1 105/292/1
f 119/293/1 120/294/1 107/295/1 106/296/1
f 120/153/1 121/154/1 108/155/1 107/156/1
f 121/133/1 122/134/1 109/135/1 108/136/1
f 122/297/1 123/298/1 110/299/1 109/300/1
f 123/301/1 124/302/1 111/303/1 110/304/1
f 124/305/1 125/306/1 112/307/1 111/308/1
f 125/309/1 126/310/1 113/311/1 112/312/1
f 126/313/1 127/314/1 114/315/1 113/316/1
f 127/153/1 128/154/1 115/155/1 114/156/1
f 128/95/1 129/96/1 116/93/1 115/94/1
f 129/317/1 130/318/1 117/319/1 116/320/1
f 131/321/1 132/322/1 119/323/1 118/324/1
f 132/325/1 133/326/1 120/327/1 119/328/1
f 133/329/1 134/330/1 121/331/1 120/332/1
f 134/333/1 135/334/1 122/335/1 121/336/1
f 135/337/1 136/338/1 123/339/1 122/340/1
f 136/341/1 137/342/1 124/343/1 123/344/1
f 137/345/1 138/346/1 125/347/1 124/348/1
f 138/349/1 139/350/1 126/351/1 125/352/1
f 139/353/1 140/354/1 127/355/1 126/356/1
f 140/357/1 141/358/1 128/359/1 127/360/1
f 141/361/1 142/362/1 129/363/1 128/364/1
f 142/365/1 143/366/1 130/367/1 129/368/1
f 144/369/1 145/370/1 132/371/1 131/372/1
f 145/373/1 146/374/1 133/375/1 132/376/1
f 146/377/1 147/378/1 134/379/1 133/380/1
f 147/381/1 148/382/1 135/383/1 134/384/1
f 148/385/1 149/386/1 136/387/1 135/388/1
f 149/389/1 150/390/1 137/391/1 136/392/1
f 150/393/1 151/394/1 138/395/1 137/396/1
f 151/397/1 152/398/1 139/399/1 138/400/1
f 152/401/1 153/402/1 140/403/1 139/404/1
f 153/405/1 154/406/1 141/407/1 140/408/1
f 154/409/1 155/410/1 142/411/1 141/412/1
f 155/413/1 156/414/1 143/415/1 142/416/1

g mesh_0002
f 41/417/1 42/418/1 29/419/1 28/420/1
f 42/421/1 43/422/1 30/423/1 29/424/1
f 49/425/1 50/426/1 37/427/1 36/428/1
f 50/429/1 51/430/1 38/431/1 37/432/1
f 54/433/1 55/434/1 42/435/1 41/436/1
f 55/437/1 56/438/1 43/439/1 42/440/1
f 62/441/1 63/442/1 50/443/1 49/444/1
f 63/445/1 64/446/1 51/447/1 50/448/1
f 120/449/1 121/450/1 108/451/1 107/452/1

g mesh_0003
f 28/453/1 29/454/1 5/455/1 2/456/1
f 29/453/1 30/454/1 7/455/1 5/456/1
f 30/453/1 31/454/1 9/455/1 7/456/1
f 31/453/1 32/454/1 11/455/1 9/456/1
f 32/453/1 33/454/1 13/455/1 11/456/1
f 33/453/1 34/454/1 15/455/1 13/456/1
f 34/453/1 35/454/1 17/455/1 15/456/1
f 35/453/1 36/454/1 19/455/1 17/456/1
f 36/453/1 37/454/1 21/455/1 19/456/1
f 37/453/1 38/454/1 23/455/1 21/456/1
f 41/453/1 42/454/1 29/455/1 28/456/1
f 42/453/1 43/454/1 30/455/1 29/456/1
f 49/453/1 50/454/1 37/455/1 36/456/1
f 50/453/1 51/454/1 38/455/1 37/456/1
f 54/453/1 55/454/1 42/455/1 41/456/1
f 55/453/1 56/454/1 43/455/1 42/456/1
f 62/453/1 63/454/1 50/455/1 49/456/1
f 63/453/1 64/454/1 51/455/1 50/456/1
f 67/453/1 68/454/1 55/455/1 54/456/1
f 76/453/1 77/454/1 64/455/1 63/456/1
f 80/453/1 81/454/1 68/455/1 67/456/1
f 89/453/1 90/454/1 77/455/1 76/456/1
f 93/453/1 94/454/1 81/455/1 80/456/1
f 102/453/1 103/454/1 90/455/1 89/456/1
f 106/453/1 107/454/1 94/455/1 93/456/1
f 115/453/1 116/454/1 103/455/1 102/456/1
f 119/453/1 120/454/1 107/455/1 106/456/1
f 120/453/1 121/454/1 108/455/1 107/456/1
f 128/453/1 129/454/1 116/455/1 115/456/1
f 132/453/1 133/454/1 120/455/1 119/456/1
f 133/453/1 134/454/1 121/455/1 120/456/1
f 134/453/1 135/454/1 122/455/1 121/456/1
f 135/453/1 136/454/1 123/455/1 122/456/1
f 138/453/1 139/454/1 126/455/1 125/456/1
f 139/453/1 140/454/1 127/455/1 126/456/1
f 140/453/1 141/454/1 128/455/1 127/456/1
f 141/453/1 142/454/1 129/455/1 128/456/1

