# Wavefront OBJ file automatically generated by Tiled2Unity

# Vertices (Count = 121)
v 0 -1 0
v -1 -1 0
v -1 0 0
v 0 0 0
v -2 -1 0
v -2 0 0
v -3 -1 0
v -3 0 0
v -4 -1 0
v -4 0 0
v -5 -1 0
v -5 0 0
v -6 -1 0
v -6 0 0
v -7 -1 0
v -7 0 0
v -8 -1 0
v -8 0 0
v -9 -1 0
v -9 0 0
v -10 -1 0
v -10 0 0
v 0 -2 0
v -1 -2 0
v -2 -2 0
v -3 -2 0
v -4 -2 0
v -5 -2 0
v -6 -2 0
v -7 -2 0
v -8 -2 0
v -9 -2 0
v -10 -2 0
v 0 -3 0
v -1 -3 0
v -2 -3 0
v -3 -3 0
v -4 -3 0
v -5 -3 0
v -6 -3 0
v -7 -3 0
v -8 -3 0
v -9 -3 0
v -10 -3 0
v 0 -4 0
v -1 -4 0
v -2 -4 0
v -3 -4 0
v -4 -4 0
v -5 -4 0
v -6 -4 0
v -7 -4 0
v -8 -4 0
v -9 -4 0
v -10 -4 0
v 0 -5 0
v -1 -5 0
v -2 -5 0
v -3 -5 0
v -4 -5 0
v -5 -5 0
v -6 -5 0
v -7 -5 0
v -8 -5 0
v -9 -5 0
v -10 -5 0
v 0 -6 0
v -1 -6 0
v -2 -6 0
v -3 -6 0
v -4 -6 0
v -5 -6 0
v -6 -6 0
v -7 -6 0
v -8 -6 0
v -9 -6 0
v -10 -6 0
v 0 -7 0
v -1 -7 0
v -2 -7 0
v -3 -7 0
v -4 -7 0
v -5 -7 0
v -6 -7 0
v -7 -7 0
v -8 -7 0
v -9 -7 0
v -10 -7 0
v 0 -8 0
v -1 -8 0
v -2 -8 0
v -3 -8 0
v -4 -8 0
v -5 -8 0
v -6 -8 0
v -7 -8 0
v -8 -8 0
v -9 -8 0
v -10 -8 0
v 0 -9 0
v -1 -9 0
v -2 -9 0
v -3 -9 0
v -4 -9 0
v -5 -9 0
v -6 -9 0
v -7 -9 0
v -8 -9 0
v -9 -9 0
v -10 -9 0
v 0 -10 0
v -1 -10 0
v -2 -10 0
v -3 -10 0
v -4 -10 0
v -5 -10 0
v -6 -10 0
v -7 -10 0
v -8 -10 0
v -9 -10 0
v -10 -10 0

# Texture cooridinates (Count = 116)
vt 0.06250763 0.8125076
vt 0.1249924 0.8125076
vt 0.1249924 0.8749924
vt 0.06250763 0.8749924
vt 0.1875076 0.8125076
vt 0.2499924 0.8125076
vt 0.2499924 0.8749924
vt 0.1875076 0.8749924
vt 7.629395E-06 0.8125076
vt 0.06249237 0.8125076
vt 0.06249237 0.8749924
vt 7.629395E-06 0.8749924
vt 0.2500076 0.8750076
vt 0.3124924 0.8750076
vt 0.3124924 0.9374924
vt 0.2500076 0.9374924
vt 0.06250763 0.6875076
vt 0.1249924 0.6875076
vt 0.1249924 0.7499924
vt 0.06250763 0.7499924
vt 0.1250076 0.8750076
vt 0.1874924 0.8750076
vt 0.1874924 0.9374924
vt 0.1250076 0.9374924
vt 0.06250763 0.8750076
vt 0.1249924 0.8750076
vt 0.1249924 0.9374924
vt 0.06250763 0.9374924
vt 0.1875076 0.9375076
vt 0.2499924 0.9375076
vt 0.2499924 0.9999924
vt 0.1875076 0.9999924
vt 7.629395E-06 0.8750076
vt 0.06249237 0.8750076
vt 0.06249237 0.9374924
vt 7.629395E-06 0.9374924
vt 7.629395E-06 0.5625076
vt 0.06249237 0.5625076
vt 0.06249237 0.6249924
vt 7.629395E-06 0.6249924
vt 0.06250763 0.5625076
vt 0.1249924 0.5625076
vt 0.1249924 0.6249924
vt 0.06250763 0.6249924
vt 0.1250076 0.5625076
vt 0.1874924 0.5625076
vt 0.1874924 0.6249924
vt 0.1250076 0.6249924
vt 0.1875076 0.5625076
vt 0.2499924 0.5625076
vt 0.2499924 0.6249924
vt 0.1875076 0.6249924
vt 7.629395E-06 0.5000076
vt 0.06249237 0.5000076
vt 0.06249237 0.5624924
vt 7.629395E-06 0.5624924
vt 0.06250763 0.5000076
vt 0.1249924 0.5000076
vt 0.1249924 0.5624924
vt 0.06250763 0.5624924
vt 0.1250076 0.5000076
vt 0.1874924 0.5000076
vt 0.1874924 0.5624924
vt 0.1250076 0.5624924
vt 0.1875076 0.5000076
vt 0.2499924 0.5000076
vt 0.2499924 0.5624924
vt 0.1875076 0.5624924
vt 0.1250076 0.7500076
vt 0.1874924 0.7500076
vt 0.1874924 0.8124924
vt 0.1250076 0.8124924
vt 0.1875076 0.7500076
vt 0.2499924 0.7500076
vt 0.2499924 0.8124924
vt 0.1875076 0.8124924
vt 0.2500076 0.7500076
vt 0.3124924 0.7500076
vt 0.3124924 0.8124924
vt 0.2500076 0.8124924
vt 0.1250076 0.6875076
vt 0.1874924 0.6875076
vt 0.1874924 0.7499924
vt 0.1250076 0.7499924
vt 0.1875076 0.6875076
vt 0.2499924 0.6875076
vt 0.2499924 0.7499924
vt 0.1875076 0.7499924
vt 0.2500076 0.6875076
vt 0.3124924 0.6875076
vt 0.3124924 0.7499924
vt 0.2500076 0.7499924
vt 0.06250763 0.4375076
vt 0.1249924 0.4375076
vt 0.1249924 0.4999924
vt 0.06250763 0.4999924
vt 0.1250076 0.4375076
vt 0.1874924 0.4375076
vt 0.1874924 0.4999924
vt 0.1250076 0.4999924
vt 0.06250763 0.3750076
vt 0.1249924 0.3750076
vt 0.1249924 0.4374924
vt 0.06250763 0.4374924
vt 0.1250076 0.3750076
vt 0.1874924 0.3750076
vt 0.1874924 0.4374924
vt 0.1250076 0.4374924
vt 0.1875076 0.8750076
vt 0.2499924 0.8750076
vt 0.2499924 0.9374924
vt 0.1875076 0.9374924
vt 0.0001220703 0.0001220703
vt 0.9998779 0.0001220703
vt 0.9998779 0.9998779
vt 0.0001220703 0.9998779

# Normal
vn 0 0 -1

# Groups (Count = 3)

g mesh_0001
f 1/1/1 2/2/1 3/3/1 4/4/1
f 2/5/1 5/6/1 6/7/1 3/8/1
f 5/5/1 7/6/1 8/7/1 6/8/1
f 7/5/1 9/6/1 10/7/1 8/8/1
f 9/5/1 11/6/1 12/7/1 10/8/1
f 11/5/1 13/6/1 14/7/1 12/8/1
f 13/5/1 15/6/1 16/7/1 14/8/1
f 15/5/1 17/6/1 18/7/1 16/8/1
f 17/5/1 19/6/1 20/7/1 18/8/1
f 19/9/1 21/10/1 22/11/1 20/12/1
f 23/13/1 24/14/1 2/15/1 1/16/1
f 24/17/1 25/18/1 5/19/1 2/20/1
f 25/17/1 26/18/1 7/19/1 5/20/1
f 26/17/1 27/18/1 9/19/1 7/20/1
f 27/17/1 28/18/1 11/19/1 9/20/1
f 28/17/1 29/18/1 13/19/1 11/20/1
f 29/17/1 30/18/1 15/19/1 13/20/1
f 30/17/1 31/18/1 17/19/1 15/20/1
f 31/17/1 32/18/1 19/19/1 17/20/1
f 32/21/1 33/22/1 21/23/1 19/24/1
f 34/13/1 35/14/1 24/15/1 23/16/1
f 35/17/1 36/18/1 25/19/1 24/20/1
f 36/17/1 37/18/1 26/19/1 25/20/1
f 37/17/1 38/18/1 27/19/1 26/20/1
f 38/17/1 39/18/1 28/19/1 27/20/1
f 39/17/1 40/18/1 29/19/1 28/20/1
f 40/17/1 41/18/1 30/19/1 29/20/1
f 41/17/1 42/18/1 31/19/1 30/20/1
f 42/17/1 43/18/1 32/19/1 31/20/1
f 43/21/1 44/22/1 33/23/1 32/24/1
f 45/13/1 46/14/1 35/15/1 34/16/1
f 46/17/1 47/18/1 36/19/1 35/20/1
f 47/17/1 48/18/1 37/19/1 36/20/1
f 48/17/1 49/18/1 38/19/1 37/20/1
f 49/17/1 50/18/1 39/19/1 38/20/1
f 50/17/1 51/18/1 40/19/1 39/20/1
f 51/17/1 52/18/1 41/19/1 40/20/1
f 52/17/1 53/18/1 42/19/1 41/20/1
f 53/17/1 54/18/1 43/19/1 42/20/1
f 54/21/1 55/22/1 44/23/1 43/24/1
f 56/13/1 57/14/1 46/15/1 45/16/1
f 57/17/1 58/18/1 47/19/1 46/20/1
f 58/17/1 59/18/1 48/19/1 47/20/1
f 59/17/1 60/18/1 49/19/1 48/20/1
f 60/17/1 61/18/1 50/19/1 49/20/1
f 61/17/1 62/18/1 51/19/1 50/20/1
f 62/17/1 63/18/1 52/19/1 51/20/1
f 63/17/1 64/18/1 53/19/1 52/20/1
f 64/17/1 65/18/1 54/19/1 53/20/1
f 65/21/1 66/22/1 55/23/1 54/24/1
f 67/13/1 68/14/1 57/15/1 56/16/1
f 68/17/1 69/18/1 58/19/1 57/20/1
f 69/17/1 70/18/1 59/19/1 58/20/1
f 70/17/1 71/18/1 60/19/1 59/20/1
f 71/17/1 72/18/1 61/19/1 60/20/1
f 72/17/1 73/18/1 62/19/1 61/20/1
f 73/17/1 74/18/1 63/19/1 62/20/1
f 74/17/1 75/18/1 64/19/1 63/20/1
f 75/17/1 76/18/1 65/19/1 64/20/1
f 76/21/1 77/22/1 66/23/1 65/24/1
f 78/13/1 79/14/1 68/15/1 67/16/1
f 79/17/1 80/18/1 69/19/1 68/20/1
f 80/17/1 81/18/1 70/19/1 69/20/1
f 81/17/1 82/18/1 71/19/1 70/20/1
f 82/17/1 83/18/1 72/19/1 71/20/1
f 83/17/1 84/18/1 73/19/1 72/20/1
f 84/17/1 85/18/1 74/19/1 73/20/1
f 85/17/1 86/18/1 75/19/1 74/20/1
f 86/17/1 87/18/1 76/19/1 75/20/1
f 87/21/1 88/22/1 77/23/1 76/24/1
f 89/13/1 90/14/1 79/15/1 78/16/1
f 90/17/1 91/18/1 80/19/1 79/20/1
f 91/17/1 92/18/1 81/19/1 80/20/1
f 92/17/1 93/18/1 82/19/1 81/20/1
f 93/17/1 94/18/1 83/19/1 82/20/1
f 94/17/1 95/18/1 84/19/1 83/20/1
f 95/17/1 96/18/1 85/19/1 84/20/1
f 96/17/1 97/18/1 86/19/1 85/20/1
f 97/17/1 98/18/1 87/19/1 86/20/1
f 98/21/1 99/22/1 88/23/1 87/24/1
f 100/13/1 101/14/1 90/15/1 89/16/1
f 101/17/1 102/18/1 91/19/1 90/20/1
f 102/17/1 103/18/1 92/19/1 91/20/1
f 103/17/1 104/18/1 93/19/1 92/20/1
f 104/17/1 105/18/1 94/19/1 93/20/1
f 105/17/1 106/18/1 95/19/1 94/20/1
f 106/17/1 107/18/1 96/19/1 95/20/1
f 107/17/1 108/18/1 97/19/1 96/20/1
f 108/17/1 109/18/1 98/19/1 97/20/1
f 109/21/1 110/22/1 99/23/1 98/24/1
f 111/25/1 112/26/1 101/27/1 100/28/1
f 112/29/1 113/30/1 102/31/1 101/32/1
f 113/29/1 114/30/1 103/31/1 102/32/1
f 114/29/1 115/30/1 104/31/1 103/32/1
f 115/29/1 116/30/1 105/31/1 104/32/1
f 116/29/1 117/30/1 106/31/1 105/32/1
f 117/29/1 118/30/1 107/31/1 106/32/1
f 118/29/1 119/30/1 108/31/1 107/32/1
f 119/29/1 120/30/1 109/31/1 108/32/1
f 120/33/1 121/34/1 110/35/1 109/36/1

g mesh_0002
f 24/37/1 25/38/1 5/39/1 2/40/1
f 25/41/1 26/42/1 7/43/1 5/44/1
f 26/45/1 27/46/1 9/47/1 7/48/1
f 27/49/1 28/50/1 11/51/1 9/52/1
f 28/37/1 29/38/1 13/39/1 11/40/1
f 29/41/1 30/42/1 15/43/1 13/44/1
f 30/45/1 31/46/1 17/47/1 15/48/1
f 31/49/1 32/50/1 19/51/1 17/52/1
f 35/53/1 36/54/1 25/55/1 24/56/1
f 36/57/1 37/58/1 26/59/1 25/60/1
f 37/61/1 38/62/1 27/63/1 26/64/1
f 38/65/1 39/66/1 28/67/1 27/68/1
f 39/53/1 40/54/1 29/55/1 28/56/1
f 40/57/1 41/58/1 30/59/1 29/60/1
f 41/61/1 42/62/1 31/63/1 30/64/1
f 42/65/1 43/66/1 32/67/1 31/68/1
f 62/69/1 63/70/1 52/71/1 51/72/1
f 63/73/1 64/74/1 53/75/1 52/76/1
f 64/77/1 65/78/1 54/79/1 53/80/1
f 73/81/1 74/82/1 63/83/1 62/84/1
f 74/85/1 75/86/1 64/87/1 63/88/1
f 75/89/1 76/90/1 65/91/1 64/92/1
f 96/93/1 97/94/1 86/95/1 85/96/1
f 97/97/1 98/98/1 87/99/1 86/100/1
f 107/101/1 108/102/1 97/103/1 96/104/1
f 108/105/1 109/106/1 98/107/1 97/108/1
f 114/33/1 115/34/1 104/35/1 103/36/1
f 115/109/1 116/110/1 105/111/1 104/112/1
f 116/25/1 117/26/1 106/27/1 105/28/1
f 117/29/1 118/30/1 107/31/1 106/32/1

g mesh_0003
f 24/113/1 25/114/1 5/115/1 2/116/1
f 25/113/1 26/114/1 7/115/1 5/116/1
f 26/113/1 27/114/1 9/115/1 7/116/1
f 27/113/1 28/114/1 11/115/1 9/116/1
f 28/113/1 29/114/1 13/115/1 11/116/1
f 29/113/1 30/114/1 15/115/1 13/116/1
f 30/113/1 31/114/1 17/115/1 15/116/1
f 31/113/1 32/114/1 19/115/1 17/116/1
f 35/113/1 36/114/1 25/115/1 24/116/1
f 36/113/1 37/114/1 26/115/1 25/116/1
f 37/113/1 38/114/1 27/115/1 26/116/1
f 38/113/1 39/114/1 28/115/1 27/116/1
f 39/113/1 40/114/1 29/115/1 28/116/1
f 40/113/1 41/114/1 30/115/1 29/116/1
f 41/113/1 42/114/1 31/115/1 30/116/1
f 42/113/1 43/114/1 32/115/1 31/116/1
f 62/113/1 63/114/1 52/115/1 51/116/1
f 63/113/1 64/114/1 53/115/1 52/116/1
f 64/113/1 65/114/1 54/115/1 53/116/1
f 73/113/1 74/114/1 63/115/1 62/116/1
f 74/113/1 75/114/1 64/115/1 63/116/1
f 75/113/1 76/114/1 65/115/1 64/116/1
f 96/113/1 97/114/1 86/115/1 85/116/1
f 97/113/1 98/114/1 87/115/1 86/116/1
f 107/113/1 108/114/1 97/115/1 96/116/1
f 108/113/1 109/114/1 98/115/1 97/116/1

